<?xml version="1.0" standalone="no"?>
<!DOCTYPE svg PUBLIC "-//W3C//DTD SVG 20010904//EN"
 "http://www.w3.org/TR/2001/REC-SVG-20010904/DTD/svg10.dtd">
<svg version="1.0" xmlns="http://www.w3.org/2000/svg"
 width="196.000000pt" height="238.000000pt" viewBox="0 0 196.000000 238.000000"
 preserveAspectRatio="xMidYMid meet">
<metadata>
Created by potrace 1.16, written by Peter Selinger 2001-2019
</metadata>
<g transform="translate(0.000000,238.000000) scale(0.100000,-0.100000)"
fill="#000000" stroke="none">
<path d="M1085 2276 c-199 -42 -350 -105 -472 -197 -89 -67 -94 -136 -17 -251
22 -33 33 -57 27 -64 -51 -70 -130 -198 -151 -243 -32 -70 -40 -147 -19 -188
15 -28 14 -35 -19 -132 -19 -56 -34 -122 -34 -145 0 -56 22 -128 55 -177 l26
-40 -28 -57 c-35 -73 -44 -181 -18 -235 18 -39 74 -72 106 -64 15 4 24 -4 41
-36 43 -85 79 -116 136 -117 43 0 82 38 82 80 0 25 4 31 18 28 13 -3 16 -12
14 -46 -3 -54 11 -80 54 -98 45 -19 97 -6 157 40 38 29 46 32 62 20 27 -20 75
-17 112 6 53 32 86 109 91 212 4 79 6 87 27 92 38 10 113 84 139 139 18 36 29
84 37 159 11 94 15 108 34 116 13 6 32 31 44 55 18 37 22 63 22 145 0 87 -11
190 -26 259 -4 17 5 27 48 51 66 37 114 91 123 136 17 96 -179 348 -387 497
-116 83 -135 86 -284 55z m218 -65 c69 -65 140 -243 201 -501 83 -352 88 -561
14 -601 -16 -8 -29 -1 -82 48 -215 196 -643 282 -891 179 -34 -15 -36 -14 -51
10 -47 71 36 237 252 506 231 286 394 420 489 402 17 -3 47 -22 68 -43z m-264
-3 c-63 -46 -201 -189 -294 -306 -44 -56 -83 -101 -87 -101 -12 -1 -68 93 -79
131 -7 29 -7 45 3 65 30 62 220 171 378 217 117 34 133 33 79 -6z m375 -57
c146 -116 305 -323 308 -403 1 -18 -4 -44 -11 -56 -11 -20 -123 -102 -140
-102 -4 0 -14 38 -24 85 -27 132 -91 333 -133 422 -22 45 -35 78 -29 75 5 -3
18 -13 29 -21z m-628 -821 c61 -38 92 -150 63 -227 -38 -100 -178 -145 -275
-88 -59 35 -99 116 -90 182 11 86 45 112 176 138 88 18 88 18 126 -5z m141 10
c78 -11 299 -75 308 -90 3 -4 -16 -19 -42 -31 -158 -79 -160 -292 -4 -371 90
-46 184 -29 252 44 l30 33 -7 -30 c-11 -47 -50 -118 -81 -147 -39 -38 -110
-68 -160 -68 -31 0 -43 -4 -43 -14 0 -11 14 -16 48 -18 l47 -3 3 -63 c6 -136
-89 -252 -163 -198 -18 13 -18 15 -3 38 30 46 50 135 43 189 -7 51 -52 119
-79 119 -6 0 -24 7 -41 16 -23 12 -45 14 -89 9 -50 -5 -61 -3 -80 14 -30 29
-63 38 -133 37 -54 -1 -66 -5 -94 -31 -44 -42 -72 -108 -78 -190 -5 -62 -9
-70 -27 -73 -12 -2 -34 8 -50 21 -39 34 -46 126 -15 209 29 76 40 84 85 58 33
-20 56 -20 56 0 0 5 -17 18 -37 29 -95 49 -145 153 -129 266 8 51 21 59 29 16
4 -16 21 -46 38 -66 46 -52 97 -75 167 -75 113 0 202 89 202 203 0 68 -9 94
-50 141 l-32 36 25 0 c14 0 61 -5 104 -10z m419 -151 c24 -17 62 -48 84 -70
36 -36 40 -46 40 -90 0 -137 -138 -226 -263 -171 -146 64 -151 267 -8 342 53
28 95 25 147 -11z m-589 -423 c2 -1 -2 -18 -7 -37 -16 -54 -13 -80 11 -86 11
-3 18 -11 15 -19 -20 -53 -27 -105 -21 -165 6 -62 5 -68 -14 -78 -32 -17 -67
-3 -96 39 -79 113 -60 294 35 342 28 14 62 16 77 4z m71 -6 c12 -12 22 -22 22
-24 0 -16 -24 -66 -32 -66 -5 0 -6 4 -3 10 14 23 13 53 -2 69 -16 15 -16 15
-11 -1 4 -10 1 -19 -8 -22 -15 -6 -17 -2 -8 32 8 27 14 28 42 2z m179 -37 c-2
-2 -22 -6 -43 -9 -39 -5 -38 10 1 18 21 4 49 -1 42 -9z m-107 -17 c0 -16 -18
-31 -27 -22 -8 8 5 36 17 36 5 0 10 -6 10 -14z m-106 -2 c18 -7 10 -34 -10
-34 -8 0 -14 9 -14 20 0 22 1 23 24 14z m202 -10 c-3 -9 -6 -23 -6 -32 0 -33
-15 -45 -39 -33 -29 16 -27 30 4 26 21 -2 25 2 25 26 0 16 5 29 11 29 6 0 8
-7 5 -16z m85 -7 c28 -21 39 -54 39 -114 0 -100 -63 -196 -156 -240 -27 -13
-38 -14 -59 -5 -41 19 -41 39 -2 111 20 37 39 86 43 109 5 31 11 42 24 42 24
0 37 18 50 71 12 48 24 53 61 26z m-247 -99 c-3 -77 -14 -118 -32 -118 -12 0
-14 11 -10 63 9 102 45 150 42 55z m83 -18 c-6 -48 -35 -120 -48 -120 -4 0
-15 10 -23 21 -14 20 -12 27 22 89 20 38 41 66 46 63 5 -3 6 -27 3 -53z"/>
<path d="M667 1240 c-72 -57 -14 -175 75 -153 45 11 81 63 43 63 -23 0 -30 48
-10 70 16 17 16 19 -4 29 -31 17 -76 13 -104 -9z m78 -85 c0 -23 -34 -33 -46
-14 -10 17 9 41 30 37 9 -2 16 -12 16 -23z"/>
<path d="M900 950 c-41 -41 -36 -125 8 -141 34 -13 82 36 82 83 0 67 -49 99
-90 58z"/>
<path d="M1190 1132 c-40 -41 -41 -83 -1 -123 37 -37 79 -38 118 -5 l28 25
-22 16 c-26 19 -30 60 -7 73 13 7 13 10 1 21 -9 6 -31 15 -51 18 -30 5 -40 1
-66 -25z m78 -80 c3 -16 -2 -22 -17 -22 -24 0 -35 15 -27 36 9 23 40 13 44
-14z"/>
<path d="M510 230 c-121 -9 -201 -27 -179 -40 40 -25 167 -35 459 -35 293 0
440 11 464 35 37 37 -433 62 -744 40z"/>
</g>
</svg>
